<?xml version="1.0" encoding="UTF-8"?>
<svg width="54px" height="46px" viewBox="0 0 54 46" version="1.1" xmlns="http://www.w3.org/2000/svg" xmlns:xlink="http://www.w3.org/1999/xlink">
    <title>切片</title>
    <g id="页面-1" stroke="none" stroke-width="1" fill="none" fill-rule="evenodd">
        <g id="logo" transform="translate(-0.000000, 0.002222)" fill="#26B398" fill-rule="nonzero">
            <path d="M16,11.9992595 L9.70121072,19.9992595 L7.85583604,18.6513382 C6.2933174,19.7487295 4.41882602,21.7786661 4.59197459,25.1452817 C4.81773149,29.5347878 9.68708905,30.0770244 11.9103125,30.0947071 L12.1791919,30.0943709 C12.2627699,30.093489 12.3411059,30.0919277 12.4136557,30.0899351 C15.4301608,27.7948946 19.3974031,25.9538721 24.6034319,25.2049647 C41.4313021,22.7844073 39.6126394,42.4713012 34.1616823,45.1553264 C34.1616823,45.1553264 27.5016373,35.7696023 17.8280959,38.4184985 C8.15413529,41.0673946 3,45.9992594 3,45.9992594 C3,45.9992594 3.69933627,40.2195352 7.83994874,34.701857 C5.10243889,34.0005205 0.640063179,32.391038 0.0497631997,26.3422652 C-0.469414715,21.0259713 3.20273924,17.8609048 5.06307158,16.614603 L3,15.110305 L16,11.9992595 Z M36.3076393,0.000167467868 C38.8786929,0.0182248912 40.7913659,0.299564221 40.7913659,0.299564221 C24.3885071,3.84670979 29.3702927,16.3527255 43.0749109,21.0707898 C51.2060388,23.8697552 52.2019775,15.6989067 52.2019775,15.6989067 C52.2019775,15.6989067 58.8730927,27.6081396 46.5155024,26.9748706 C34.1579122,26.3416015 22.7887283,17.7123668 23.0029806,7.71342558 C23.1418624,1.2192679 30.6040185,0.0334298507 35.8181576,-1.45196355e-15 L36.3076393,0.000167467868 Z" id="形状结合"></path>
        </g>
    </g>
</svg>